<?xml version="1.0" encoding="utf-8"?>
<!-- Generator: Adobe Illustrator 23.0.4, SVG Export Plug-In . SVG Version: 6.00 Build 0)  -->
<svg version="1.1" id="Layer_1" xmlns="http://www.w3.org/2000/svg" xmlns:xlink="http://www.w3.org/1999/xlink" x="0px" y="0px"
	 viewBox="0 0 1024 1024" style="enable-background:new 0 0 1024 1024;" xml:space="preserve">
<style type="text/css">
	.st0{fill:#496280;}
	.st1{fill:none;stroke:#FFFFFF;stroke-width:14;stroke-miterlimit:10;}
</style>
<g>
	<g>
		<g>
			<path class="st0" d="M625.3,647.9c-16.5,0-28.4,10-31,26.1h61.7C653.5,658.1,641.6,647.9,625.3,647.9z"/>
		</g>
	</g>
	<g>
		<g>
			<polygon class="st0" points="225.4,341.9 199.5,404.4 251.2,404.4 			"/>
		</g>
	</g>
	<g>
		<g>
			<path class="st0" d="M552,370.6c-18.2,0-32.2,13-32.2,34.7c0,21.7,14,34.7,32.2,34.7c18.2,0,31.9-13,31.9-34.7
				C583.9,383.7,570.2,370.6,552,370.6z"/>
		</g>
	</g>
	<g>
		<g>
			<ellipse class="st0" cx="399.4" cy="405.3" rx="31.9" ry="34.7"/>
		</g>
	</g>
	<g>
		<g>
			<path class="st0" d="M512,0C229.2,0,0,229.2,0,512s229.2,512,512,512s512-229.2,512-512S794.8,0,512,0z M277.6,468l-14.4-35
				h-75.7l-14.4,35h-38.7L207,304.9h37.3L317.2,468H277.6z M331.6,295.1H368v60.8c9.3-10.3,22.1-15.1,37.7-15.1
				c35.2,0,62.4,25.2,62.4,64.5c0,39.4-27.3,64.5-62.4,64.5c-16.8,0-30.3-5.4-39.4-16.3V468h-34.7V295.1z M496,747.6l-0.2-97.9
				l-48,80.6h-17L383,651.8v95.8h-35.4V584.5h31.2l61,101.4L500,584.5h31l0.5,163.1H496z M483.1,405.3c0-37.7,29.1-64.5,69-64.5
				c39.8,0,68.7,26.8,68.7,64.5c0,37.7-28.9,64.5-68.7,64.5C512.2,469.9,483.1,443.1,483.1,405.3z M689.6,695.2h-94.8
				c3.5,15.6,16.8,25.2,35.9,25.2c13.3,0,22.8-4,31.5-12.1l19.3,21c-11.7,13.3-29.1,20.3-51.7,20.3c-43.3,0-71.5-27.3-71.5-64.5
				c0-37.5,28.7-64.5,66.9-64.5c36.8,0,65.2,24.7,65.2,65C690.3,688.2,689.8,692.1,689.6,695.2z M771.3,468h-34.5v-14.9
				c-9.6,11-23.5,16.8-38.9,16.8c-31.5,0-53.6-17.7-53.6-56.4v-70.8h36.3v65.5c0,21,9.3,30.3,25.4,30.3c16.8,0,28.9-10.7,28.9-33.8
				v-62h36.3V468z M856.3,469.9c-29.6,0-46.8-15.1-46.8-45v-51.5h-19.3v-28h19.3v-30.5h36.3v30.5h31.2v28h-31.2v51
				c0,10.7,5.8,16.5,15.6,16.5c5.4,0,10.7-1.6,14.7-4.7l9.8,25.6C878.5,467.3,867.5,469.9,856.3,469.9z"/>
		</g>
	</g>
</g>
<g>
	<g>
		<g>
			<path class="st1" d="M208,302.9L135.3,466h38.7l14.4-35h75.7l14.4,35h39.6l-72.9-163.1H208z M200.5,402.4l25.9-62.4l25.9,62.4
				H200.5z"/>
			<path class="st1" d="M367.3,451.6c9.1,11,22.6,16.3,39.4,16.3c35.2,0,62.4-25.2,62.4-64.5c0-39.4-27.3-64.5-62.4-64.5
				c-15.6,0-28.4,4.9-37.7,15.1v-60.8h-36.3V466h34.7V451.6z M400.4,368.6c18.2,0,31.9,13,31.9,34.7c0,21.7-13.7,34.7-31.9,34.7
				s-31.9-13-31.9-34.7C368.5,381.7,382.2,368.6,400.4,368.6z"/>
			<path class="st1" d="M621.8,403.3c0-37.7-28.9-64.5-68.7-64.5c-39.8,0-69,26.8-69,64.5c0,37.7,29.1,64.5,69,64.5
				C592.9,467.9,621.8,441.1,621.8,403.3z M553,438c-18.2,0-32.2-13-32.2-34.7c0-21.7,14-34.7,32.2-34.7c18.2,0,31.9,13,31.9,34.7
				C584.9,425,571.2,438,553,438z"/>
			<path class="st1" d="M735.9,402.6c0,23.1-12.1,33.8-28.9,33.8c-16.1,0-25.4-9.3-25.4-30.3v-65.5h-36.3v70.8
				c0,38.7,22.1,56.4,53.6,56.4c15.4,0,29.4-5.8,38.9-16.8V466h34.5V340.6h-36.3V402.6z"/>
			<path class="st1" d="M877.1,434.3c-4,3-9.3,4.7-14.7,4.7c-9.8,0-15.6-5.8-15.6-16.5v-51h31.2v-28h-31.2v-30.5h-36.3v30.5h-19.3
				v28h19.3v51.5c0,29.8,17.2,45,46.8,45c11.2,0,22.1-2.6,29.6-7.9L877.1,434.3z"/>
			<polygon class="st1" points="501,582.5 440.8,683.9 379.8,582.5 348.6,582.5 348.6,745.6 384,745.6 384,649.8 431.8,728.4 
				448.8,728.4 496.8,647.7 497,745.6 532.4,745.6 531.9,582.5 			"/>
			<path class="st1" d="M626.1,618.4c-38.2,0-66.9,27-66.9,64.5c0,37.3,28.2,64.5,71.5,64.5c22.6,0,40.1-7,51.7-20.3l-19.3-21
				c-8.6,8.2-18.2,12.1-31.5,12.1c-19.1,0-32.4-9.6-35.9-25.2h94.8c0.2-3,0.7-7,0.7-9.8C691.3,643.1,662.9,618.4,626.1,618.4z
				 M595.3,672c2.6-16.1,14.4-26.1,31-26.1c16.3,0,28.2,10.3,30.8,26.1H595.3z"/>
		</g>
	</g>
</g>
<g>
</g>
<g>
</g>
<g>
</g>
<g>
</g>
<g>
</g>
<g>
</g>
<g>
</g>
<g>
</g>
<g>
</g>
<g>
</g>
<g>
</g>
<g>
</g>
<g>
</g>
<g>
</g>
<g>
</g>
</svg>
